<svg width="60" height="31" viewBox="0 0 60 31" fill="none" xmlns="http://www.w3.org/2000/svg">
<path fill-rule="evenodd" clip-rule="evenodd" d="M41.8529 25.1797H43.5215V27.6741H41.257C40.522 27.6741 39.9063 27.5355 39.4097 27.2584C38.9131 26.9812 38.5555 26.6249 38.3172 26.1695C38.0788 25.734 37.9596 25.2787 37.9596 24.8035V20.6264V18.3497V16.3502L41.1974 15.499V19.2208H43.5413V21.4974H41.2173V24.6056C41.1974 24.9817 41.4159 25.1797 41.8529 25.1797ZM33.3909 19.201H36.6287V27.6741H33.3909V19.201ZM33.3512 14.6279H36.6089V17.1025H33.3512V14.6279ZM29.5771 27.6741H26.3393V20.6264V18.3497V17.4985C26.3393 17.0233 26.4585 16.568 26.6969 16.1325C26.9352 15.6969 27.2928 15.3208 27.7894 15.0436C28.286 14.7665 28.9017 14.6279 29.6367 14.6279H32.0005V17.1223H30.2326C29.7956 17.1223 29.5771 17.3203 29.5771 17.7162V19.201H32.0005V21.4776H29.5771V27.6741ZM24.1742 26.5457C23.32 27.3771 22.1679 27.7929 20.7576 27.7929C19.3274 27.7929 18.1753 27.3771 17.341 26.5457C17.0431 26.2685 16.8246 25.9518 16.6458 25.6152C16.467 25.2787 16.3479 24.9025 16.2883 24.467C16.2088 24.0315 16.1889 23.4969 16.1889 22.8238C16.1889 22.1705 16.2287 21.6162 16.2883 21.1807C16.3677 20.7452 16.4869 20.369 16.6458 20.0325C16.8246 19.6959 17.0431 19.3792 17.341 19.102C17.7185 18.7457 18.1753 18.4487 18.7315 18.2111C19.2877 17.9736 19.9631 17.8548 20.7576 17.8548C21.5522 17.8548 22.2077 17.9736 22.7837 18.2111C23.3399 18.4487 23.8166 18.7457 24.194 19.102C24.631 19.5375 24.929 20.0325 25.1078 20.567C25.2667 21.1213 25.366 21.8538 25.366 22.804C25.366 23.7543 25.2865 24.5066 25.1078 25.0609C24.929 25.6152 24.6112 26.1101 24.1742 26.5457ZM22.009 21.5172C21.9494 21.2005 21.8302 20.9827 21.6316 20.8046C21.433 20.6264 21.1549 20.5274 20.7576 20.5274C20.3802 20.5274 20.0822 20.6264 19.8836 20.8046C19.685 20.9827 19.5658 21.2401 19.5062 21.5568C19.4466 21.8736 19.4069 22.3091 19.4069 22.8238C19.4069 23.3386 19.4466 23.7543 19.5062 24.0711C19.5658 24.3878 19.685 24.6452 19.8836 24.8233C20.0822 25.0015 20.3802 25.1005 20.7576 25.1005C21.135 25.1005 21.433 25.0015 21.6316 24.8233C21.8302 24.6452 21.9494 24.4076 22.009 24.1106C22.0686 23.8137 22.1083 23.3782 22.1083 22.804C22.0885 22.2497 22.0686 21.8142 22.009 21.5172ZM13.8848 20.369C13.4478 20.369 13.2292 20.567 13.2292 20.9629V27.6741H9.99146V21.5964V20.7452C9.99146 20.27 10.1106 19.8147 10.349 19.3792C10.5874 18.9436 10.9449 18.5675 11.4415 18.2903C11.9381 18.0132 12.5539 17.8746 13.2888 17.8746H16.1492L15.5136 20.369H13.8848ZM8.18386 26.2091C7.03176 27.4761 5.14471 27.7731 3.23779 27.6543V31H0C0 31 0 18.5081 0 17.8944C2.64188 17.8746 4.62825 17.8746 5.60157 17.8746C6.67422 17.8746 7.52836 18.1716 8.18386 18.7457C8.601 19.1416 8.87909 19.6167 8.99827 20.2106C9.11746 20.8046 9.17705 21.5172 9.17705 22.3883V22.8436V23.299C9.17705 24.17 9.11746 24.2096 8.99827 24.7837C8.87909 25.3381 8.56127 25.7934 8.18386 26.2091ZM4.96593 20.2106C4.5488 20.2106 3.85356 20.2304 3.41656 20.2304L3.21793 20.3096V25.2985C3.21793 25.2985 3.53575 25.3183 4.46934 25.3183C5.14471 25.3183 5.60157 24.9619 5.83994 24.566C6.0783 24.17 6.21735 23.4375 6.21735 22.4873C6.21735 20.9035 5.95912 20.2106 4.96593 20.2106Z" fill="white"/>
<path d="M49.1032 20.4482C49.3415 20.3096 49.6395 20.2305 49.997 20.2305C50.3546 20.2305 50.6525 20.3096 50.8909 20.4482C51.1293 20.5868 51.308 20.765 51.4074 20.9827C51.5265 21.2005 51.5861 21.4579 51.5861 21.735H48.4278C48.4278 21.4381 48.4874 21.2005 48.6066 20.9827C48.7059 20.7848 48.8648 20.5868 49.1032 20.4482Z" fill="white"/>
<path d="M59.3131 24.3284L54.5061 29.1589C54.2677 29.3766 53.9499 29.5152 53.6122 29.5152C53.2746 29.5152 52.9567 29.3766 52.7382 29.1589L51.2683 27.6939C51.8046 27.6345 52.2615 27.5355 52.6588 27.3771C53.2547 27.1396 53.8506 26.7436 54.4465 26.2091L52.4999 24.4472C52.182 24.7244 51.8841 24.9223 51.5861 25.0609C51.2882 25.1797 50.8512 25.2589 50.3149 25.2589C49.7388 25.2589 49.2819 25.1203 48.9443 24.8233C48.6066 24.5264 48.4477 24.17 48.4477 23.7543H54.8041V22.4279C54.8041 21.5568 54.6253 20.765 54.2479 20.0721C53.8705 19.3792 53.3341 18.8249 52.5992 18.4289C51.8841 18.0132 51.0101 17.8152 50.0169 17.8152C48.6066 17.8152 47.4545 18.2507 46.5805 19.1218C45.925 19.7751 45.5277 20.6066 45.3489 21.636C45.0311 21.1411 44.8325 20.4878 44.8325 19.9731V15.8949C44.8325 15.202 45.4085 14.6279 46.0839 14.6279H50.1559C50.8512 14.6279 51.8046 15.0238 52.3012 15.5188L59.3131 22.5269C59.5316 22.7645 59.6707 23.0812 59.6707 23.4178C59.6707 23.7741 59.5316 24.0908 59.3131 24.3284Z" fill="white"/>
<path d="M59.3131 24.3284L54.5061 29.1589C54.2677 29.3766 53.9499 29.5152 53.6122 29.5152C53.2746 29.5152 52.9567 29.3766 52.7382 29.1589L51.2683 27.6939C51.8046 27.6345 52.2615 27.5355 52.6588 27.3771C53.2547 27.1396 53.8506 26.7436 54.4465 26.2091L52.4999 24.4472C52.182 24.7244 51.8841 24.9223 51.5861 25.0609C51.2882 25.1797 50.8512 25.2589 50.3149 25.2589C49.7388 25.2589 49.2819 25.1203 48.9443 24.8233C48.6066 24.5264 48.4477 24.17 48.4477 23.7543H54.8041V22.4279C54.8041 21.5568 54.6253 20.765 54.2479 20.0721C53.8705 19.3792 53.3341 18.8249 52.5992 18.4289C51.8841 18.0132 51.0101 17.8152 50.0169 17.8152C48.6066 17.8152 47.4545 18.2507 46.5805 19.1218C45.925 19.7751 45.5277 20.6066 45.3489 21.636C45.0311 21.1411 44.8325 20.4878 44.8325 19.9731V15.8949C44.8325 15.202 45.4085 14.6279 46.0839 14.6279H50.1559C50.8512 14.6279 51.8046 15.0238 52.3012 15.5188L59.3131 22.5269C59.5316 22.7645 59.6707 23.0812 59.6707 23.4178C59.6707 23.7741 59.5316 24.0908 59.3131 24.3284Z" fill="white"/>
<path d="M3.84 8.15002C3.35333 8.15002 2.91 8.07002 2.51 7.91002C2.11 7.75002 1.76667 7.51668 1.48 7.21002C1.19333 6.90335 0.97 6.52668 0.81 6.08002C0.656667 5.62668 0.58 5.11002 0.58 4.53002C0.58 3.95002 0.666667 3.43668 0.84 2.99002C1.02 2.53668 1.26 2.15668 1.56 1.85002C1.86 1.54335 2.21 1.31001 2.61 1.15002C3.01 0.990016 3.43667 0.910015 3.89 0.910015C4.17667 0.910015 4.43333 0.930015 4.66 0.970015C4.89333 1.01002 5.09333 1.05668 5.26 1.11002C5.43333 1.16335 5.57333 1.21668 5.68 1.27002C5.78667 1.32335 5.86 1.36335 5.9 1.39002L5.62 2.19002C5.56 2.15002 5.47333 2.10668 5.36 2.06002C5.24667 2.01335 5.11667 1.96668 4.97 1.92002C4.83 1.87335 4.67333 1.83668 4.5 1.81002C4.33333 1.77668 4.16333 1.76002 3.99 1.76002C3.62333 1.76002 3.29333 1.82335 3 1.95002C2.70667 2.07668 2.45667 2.26002 2.25 2.50002C2.04333 2.74002 1.88333 3.03335 1.77 3.38002C1.66333 3.72002 1.61 4.10335 1.61 4.53002C1.61 4.94335 1.65667 5.32002 1.75 5.66002C1.85 6.00002 1.99667 6.29335 2.19 6.54002C2.38333 6.78002 2.62333 6.96668 2.91 7.10002C3.20333 7.23335 3.54333 7.30002 3.93 7.30002C4.37667 7.30002 4.74667 7.25335 5.04 7.16002C5.33333 7.06668 5.55333 6.98335 5.7 6.91002L5.95 7.71002C5.90333 7.74335 5.82 7.78668 5.7 7.84002C5.58 7.88668 5.43 7.93335 5.25 7.98002C5.07 8.02668 4.86 8.06668 4.62 8.10002C4.38 8.13335 4.12 8.15002 3.84 8.15002ZM8.92117 2.69002C9.00117 2.69002 9.09117 2.69668 9.19117 2.71002C9.29784 2.71668 9.40117 2.73002 9.50117 2.75002C9.60117 2.76335 9.69117 2.78002 9.77117 2.80002C9.85784 2.81335 9.92117 2.82668 9.96117 2.84002L9.80117 3.65002C9.72784 3.62335 9.60451 3.59335 9.43117 3.56002C9.26451 3.52002 9.04784 3.50002 8.78117 3.50002C8.60784 3.50002 8.43451 3.52002 8.26117 3.56002C8.09451 3.59335 7.98451 3.61668 7.93117 3.63002V8.00002H7.00117V3.02002C7.22117 2.94002 7.49451 2.86668 7.82117 2.80002C8.14784 2.72668 8.51451 2.69002 8.92117 2.69002ZM10.5686 5.41002C10.5686 4.95002 10.6353 4.55002 10.7686 4.21002C10.9019 3.86335 11.0786 3.57668 11.2986 3.35002C11.5186 3.12335 11.7719 2.95335 12.0586 2.84002C12.3453 2.72668 12.6386 2.67002 12.9386 2.67002C13.6386 2.67002 14.1753 2.89002 14.5486 3.33002C14.9219 3.76335 15.1086 4.42668 15.1086 5.32002C15.1086 5.36002 15.1086 5.41335 15.1086 5.48002C15.1086 5.54002 15.1053 5.59668 15.0986 5.65002H11.5386C11.5786 6.19002 11.7353 6.60002 12.0086 6.88002C12.2819 7.16002 12.7086 7.30002 13.2886 7.30002C13.6153 7.30002 13.8886 7.27335 14.1086 7.22002C14.3353 7.16002 14.5053 7.10335 14.6186 7.05002L14.7486 7.83002C14.6353 7.89002 14.4353 7.95335 14.1486 8.02002C13.8686 8.08668 13.5486 8.12002 13.1886 8.12002C12.7353 8.12002 12.3419 8.05335 12.0086 7.92002C11.6819 7.78002 11.4119 7.59002 11.1986 7.35002C10.9853 7.11002 10.8253 6.82668 10.7186 6.50002C10.6186 6.16668 10.5686 5.80335 10.5686 5.41002ZM14.1386 4.90002C14.1453 4.48002 14.0386 4.13668 13.8186 3.87002C13.6053 3.59668 13.3086 3.46002 12.9286 3.46002C12.7153 3.46002 12.5253 3.50335 12.3586 3.59002C12.1986 3.67002 12.0619 3.77668 11.9486 3.91002C11.8353 4.04335 11.7453 4.19668 11.6786 4.37002C11.6186 4.54335 11.5786 4.72002 11.5586 4.90002H14.1386ZM18.2045 7.33002C18.4245 7.33002 18.6179 7.32668 18.7845 7.32002C18.9579 7.30668 19.1012 7.28668 19.2145 7.26002V5.71002C19.1479 5.67668 19.0379 5.65002 18.8845 5.63002C18.7379 5.60335 18.5579 5.59002 18.3445 5.59002C18.2045 5.59002 18.0545 5.60002 17.8945 5.62002C17.7412 5.64002 17.5979 5.68335 17.4645 5.75002C17.3379 5.81002 17.2312 5.89668 17.1445 6.01002C17.0579 6.11668 17.0145 6.26002 17.0145 6.44002C17.0145 6.77335 17.1212 7.00668 17.3345 7.14002C17.5479 7.26668 17.8379 7.33002 18.2045 7.33002ZM18.1245 2.67002C18.4979 2.67002 18.8112 2.72002 19.0645 2.82002C19.3245 2.91335 19.5312 3.05002 19.6845 3.23002C19.8445 3.40335 19.9579 3.61335 20.0245 3.86002C20.0912 4.10002 20.1245 4.36668 20.1245 4.66002V7.91002C20.0445 7.92335 19.9312 7.94335 19.7845 7.97002C19.6445 7.99002 19.4845 8.01002 19.3045 8.03002C19.1245 8.05002 18.9279 8.06668 18.7145 8.08002C18.5079 8.10002 18.3012 8.11002 18.0945 8.11002C17.8012 8.11002 17.5312 8.08002 17.2845 8.02002C17.0379 7.96002 16.8245 7.86668 16.6445 7.74002C16.4645 7.60668 16.3245 7.43335 16.2245 7.22002C16.1245 7.00668 16.0745 6.75002 16.0745 6.45002C16.0745 6.16335 16.1312 5.91668 16.2445 5.71002C16.3645 5.50335 16.5245 5.33668 16.7245 5.21002C16.9245 5.08335 17.1579 4.99002 17.4245 4.93002C17.6912 4.87002 17.9712 4.84002 18.2645 4.84002C18.3579 4.84002 18.4545 4.84668 18.5545 4.86002C18.6545 4.86668 18.7479 4.88002 18.8345 4.90002C18.9279 4.91335 19.0079 4.92668 19.0745 4.94002C19.1412 4.95335 19.1879 4.96335 19.2145 4.97002V4.71002C19.2145 4.55668 19.1979 4.40668 19.1645 4.26002C19.1312 4.10668 19.0712 3.97335 18.9845 3.86002C18.8979 3.74002 18.7779 3.64668 18.6245 3.58002C18.4779 3.50668 18.2845 3.47002 18.0445 3.47002C17.7379 3.47002 17.4679 3.49335 17.2345 3.54002C17.0079 3.58002 16.8379 3.62335 16.7245 3.67002L16.6145 2.90002C16.7345 2.84668 16.9345 2.79668 17.2145 2.75002C17.4945 2.69668 17.7979 2.67002 18.1245 2.67002ZM22.5391 2.80002H24.5091V3.58002H22.5391V5.98002C22.5391 6.24002 22.5591 6.45668 22.5991 6.63002C22.6391 6.79668 22.6991 6.93002 22.7791 7.03002C22.8591 7.12335 22.9591 7.19002 23.0791 7.23002C23.1991 7.27002 23.3391 7.29002 23.4991 7.29002C23.7791 7.29002 24.0025 7.26002 24.1691 7.20002C24.3425 7.13335 24.4625 7.08668 24.5291 7.06002L24.7091 7.83002C24.6158 7.87668 24.4525 7.93335 24.2191 8.00002C23.9858 8.07335 23.7191 8.11002 23.4191 8.11002C23.0658 8.11002 22.7725 8.06668 22.5391 7.98002C22.3125 7.88668 22.1291 7.75002 21.9891 7.57002C21.8491 7.39002 21.7491 7.17002 21.6891 6.91002C21.6358 6.64335 21.6091 6.33668 21.6091 5.99002V1.35002L22.5391 1.19002V2.80002ZM25.3049 5.41002C25.3049 4.95002 25.3716 4.55002 25.5049 4.21002C25.6383 3.86335 25.8149 3.57668 26.0349 3.35002C26.2549 3.12335 26.5083 2.95335 26.7949 2.84002C27.0816 2.72668 27.3749 2.67002 27.6749 2.67002C28.3749 2.67002 28.9116 2.89002 29.2849 3.33002C29.6583 3.76335 29.8449 4.42668 29.8449 5.32002C29.8449 5.36002 29.8449 5.41335 29.8449 5.48002C29.8449 5.54002 29.8416 5.59668 29.8349 5.65002H26.2749C26.3149 6.19002 26.4716 6.60002 26.7449 6.88002C27.0183 7.16002 27.4449 7.30002 28.0249 7.30002C28.3516 7.30002 28.6249 7.27335 28.8449 7.22002C29.0716 7.16002 29.2416 7.10335 29.3549 7.05002L29.4849 7.83002C29.3716 7.89002 29.1716 7.95335 28.8849 8.02002C28.6049 8.08668 28.2849 8.12002 27.9249 8.12002C27.4716 8.12002 27.0783 8.05335 26.7449 7.92002C26.4183 7.78002 26.1483 7.59002 25.9349 7.35002C25.7216 7.11002 25.5616 6.82668 25.4549 6.50002C25.3549 6.16668 25.3049 5.80335 25.3049 5.41002ZM28.8749 4.90002C28.8816 4.48002 28.7749 4.13668 28.5549 3.87002C28.3416 3.59668 28.0449 3.46002 27.6649 3.46002C27.4516 3.46002 27.2616 3.50335 27.0949 3.59002C26.9349 3.67002 26.7983 3.77668 26.6849 3.91002C26.5716 4.04335 26.4816 4.19668 26.4149 4.37002C26.3549 4.54335 26.3149 4.72002 26.2949 4.90002H28.8749ZM34.5409 3.90002C34.4275 3.80668 34.2642 3.71668 34.0509 3.63002C33.8375 3.54335 33.6042 3.50002 33.3509 3.50002C33.0842 3.50002 32.8542 3.55002 32.6609 3.65002C32.4742 3.74335 32.3209 3.87668 32.2009 4.05002C32.0809 4.21668 31.9942 4.41668 31.9409 4.65002C31.8875 4.88335 31.8609 5.13335 31.8609 5.40002C31.8609 6.00668 32.0109 6.47668 32.3109 6.81002C32.6109 7.13668 33.0109 7.30002 33.5109 7.30002C33.7642 7.30002 33.9742 7.29002 34.1409 7.27002C34.3142 7.24335 34.4475 7.21668 34.5409 7.19002V3.90002ZM34.5409 0.400015L35.4709 0.240015V7.85002C35.2575 7.91002 34.9842 7.97002 34.6509 8.03002C34.3175 8.09002 33.9342 8.12002 33.5009 8.12002C33.1009 8.12002 32.7409 8.05668 32.4209 7.93002C32.1009 7.80335 31.8275 7.62335 31.6009 7.39002C31.3742 7.15668 31.1975 6.87335 31.0709 6.54002C30.9509 6.20002 30.8909 5.82002 30.8909 5.40002C30.8909 5.00002 30.9409 4.63335 31.0409 4.30002C31.1475 3.96668 31.3009 3.68002 31.5009 3.44002C31.7009 3.20002 31.9442 3.01335 32.2309 2.88002C32.5242 2.74668 32.8575 2.68002 33.2309 2.68002C33.5309 2.68002 33.7942 2.72002 34.0209 2.80002C34.2542 2.88002 34.4275 2.95668 34.5409 3.03002V0.400015ZM40.314 3.03002C40.4273 2.95668 40.5973 2.88002 40.824 2.80002C41.0573 2.72002 41.324 2.68002 41.624 2.68002C41.9973 2.68002 42.3273 2.74668 42.614 2.88002C42.9073 3.01335 43.154 3.20002 43.354 3.44002C43.554 3.68002 43.704 3.96668 43.804 4.30002C43.9107 4.63335 43.964 5.00002 43.964 5.40002C43.964 5.82002 43.9007 6.20002 43.774 6.54002C43.654 6.87335 43.4807 7.15668 43.254 7.39002C43.0273 7.62335 42.754 7.80335 42.434 7.93002C42.114 8.05668 41.754 8.12002 41.354 8.12002C40.9207 8.12002 40.5373 8.09002 40.204 8.03002C39.8707 7.97002 39.5973 7.91002 39.384 7.85002V0.400015L40.314 0.240015V3.03002ZM40.314 7.19002C40.4073 7.21668 40.5373 7.24335 40.704 7.27002C40.8773 7.29002 41.0907 7.30002 41.344 7.30002C41.844 7.30002 42.244 7.13668 42.544 6.81002C42.844 6.47668 42.994 6.00668 42.994 5.40002C42.994 5.13335 42.9673 4.88335 42.914 4.65002C42.8607 4.41668 42.774 4.21668 42.654 4.05002C42.534 3.87668 42.3773 3.74335 42.184 3.65002C41.9973 3.55002 41.7707 3.50002 41.504 3.50002C41.2507 3.50002 41.0173 3.54335 40.804 3.63002C40.5907 3.71668 40.4273 3.80668 40.314 3.90002V7.19002ZM44.5357 8.97002C44.609 9.00335 44.7024 9.03335 44.8157 9.06002C44.9357 9.09335 45.0524 9.11002 45.1657 9.11002C45.5324 9.11002 45.819 9.02668 46.0257 8.86002C46.2324 8.70002 46.419 8.43668 46.5857 8.07002C46.1657 7.27002 45.7724 6.42335 45.4057 5.53002C45.0457 4.63002 44.7457 3.72002 44.5057 2.80002H45.5057C45.579 3.10002 45.6657 3.42335 45.7657 3.77002C45.8724 4.11668 45.989 4.47335 46.1157 4.84002C46.2424 5.20668 46.379 5.57335 46.5257 5.94002C46.6724 6.30668 46.8257 6.66002 46.9857 7.00002C47.239 6.30002 47.459 5.60668 47.6457 4.92002C47.8324 4.23335 48.009 3.52668 48.1757 2.80002H49.1357C48.8957 3.78002 48.629 4.72335 48.3357 5.63002C48.0424 6.53002 47.7257 7.37335 47.3857 8.16002C47.2524 8.46002 47.1124 8.71668 46.9657 8.93002C46.8257 9.15002 46.669 9.33002 46.4957 9.47002C46.3224 9.61002 46.1257 9.71335 45.9057 9.78002C45.6924 9.84668 45.449 9.88002 45.1757 9.88002C45.1024 9.88002 45.0257 9.87335 44.9457 9.86002C44.8657 9.85335 44.7857 9.84002 44.7057 9.82002C44.6324 9.80668 44.5624 9.79002 44.4957 9.77002C44.4357 9.75002 44.3924 9.73335 44.3657 9.72002L44.5357 8.97002Z" fill="white"/>
</svg>
